<svg xmlns="http://www.w3.org/2000/svg" version="1.1" xmlns:xlink="http://www.w3.org/1999/xlink" width="200" height="200"><svg xmlns="http://www.w3.org/2000/svg" version="1.1" xmlns:xlink="http://www.w3.org/1999/xlink" viewBox="0 0 200 200"><rect width="200" height="200" fill="url('#gradient')"></rect><defs><linearGradient id="SvgjsLinearGradient1001" gradientTransform="rotate(360 0.5 0.5)"><stop offset="0%" stop-color="#ffffff"></stop><stop offset="100%" stop-color="#ffffff"></stop></linearGradient></defs><g><g fill="#03003a" transform="matrix(7.127610208816705,0,0,7.127610208816705,22.48821773302251,149.96626479443154)" stroke="#0f0aff" stroke-width="0.45"><path d="M6.74-4.46L6.74-14.22L10.16-14.22L10.16-4.46Q10.16-3.11 9.53-2.04Q8.90-0.98 7.77-0.39Q6.64 0.20 5.25 0.20L5.25 0.20Q2.93 0.20 1.64-0.98Q0.35-2.15 0.35-4.30L0.35-4.30L3.79-4.30Q3.79-3.32 4.13-2.88Q4.46-2.44 5.25-2.44L5.25-2.44Q5.97-2.44 6.35-2.97Q6.74-3.51 6.74-4.46L6.74-4.46ZM17.98-4.46L17.98-14.22L21.40-14.22L21.40-4.46Q21.40-3.11 20.77-2.04Q20.14-0.98 19.01-0.39Q17.88 0.20 16.49 0.20L16.49 0.20Q14.17 0.20 12.88-0.98Q11.59-2.15 11.59-4.30L11.59-4.30L15.03-4.30Q15.03-3.32 15.37-2.88Q15.70-2.44 16.49-2.44L16.49-2.44Q17.21-2.44 17.59-2.97Q17.98-3.51 17.98-4.46L17.98-4.46Z"></path></g></g></svg><style>@media (prefers-color-scheme: light) { :root { filter: none; } }
@media (prefers-color-scheme: dark) { :root { filter: none; } }
</style></svg>